<mxfile host="app.diagrams.net" modified="2024-04-14T07:01:34.447Z" agent="Mozilla/5.0 (Windows NT 10.0; Win64; x64) AppleWebKit/537.36 (KHTML, like Gecko) Chrome/123.0.0.0 Safari/537.36 Edg/123.0.0.0" version="24.2.5" etag="MGOHeLx_UByOT1Lgi8BN" type="github">
  <diagram name="第 1 页" id="tz6B6qFYQtOUWgAv0YMG">
    <mxGraphModel>
      <root>
        <mxCell id="0" />
        <mxCell id="1" parent="0" />
      </root>
    </mxGraphModel>
  </diagram>
</mxfile>
